# xmcd CD database file
#
# Track frame offsets:
#	150
#	15524
#	30317
#	43321
#	58452
#	72485
#	87292
#	100812
#	115291
#	129653
#	143999
#	155666
#	168871
#	180495
#	193592
#	208699
#	219069
#	231865
#	244255
#	272951
#	326737
#
# Disc length: 4642 seconds
#
# Revision: 0
# Processed by: cddbd v1.5.2PL0 Copyright (c) Steve Scherf et al.
# Submitted via: CDex 1.70beta2
#
DISCID=37122015
DTITLE=Various Artist - The Arranger's Touch [CD3] - Things to Come
DYEAR=1900
DGENRE=Jazz
TTITLE0=Lionel Hampton and his Orchestra - In the Bag
TTITLE1=Gene Krupa and his Orchestra - Massachusetts
TTITLE2=Andy Kirk and his Twelve Clouds of Joy - Mcghee Special
TTITLE3=Count Basie and his Orchestra - Harvard Blues
TTITLE4=Lionel Hampton and his Orchestra - Million Dollar Smile
TTITLE5=Harry James and his Orchestra - I'm Beginning to See the Light
TTITLE6=Gene Krupa and his Orchestra - Leave Us Leap
TTITLE7=Georgie Auld and his Orchestra - In the Middle
TTITLE8=Count Basie and his Orchestra - Avenue C
TTITLE9=Boyd Raeburn and his Orchestra - Boyd's Nest
TTITLE10=Woody Herman and his Orchestra - The Good Earth
TTITLE11=Billy Eckstine and his Orchestra - I'm In the Mood for Love
TTITLE12=Les Brown and his Band of Renown - I Got the Sun in the Morning
TTITLE13=Billy Eckstine and his Orchestra - Second Balcony Jump
TTITLE14=Count Basie and his Orchestra - Rambo
TTITLE15=Stan Kenton and his Orchestra - Everybody Swing
TTITLE16=Stan Kenton and his Orchestra - Opus in Pastels
TTITLE17=Dizzy Gillespie and his Orchestra - Things to Come
TTITLE18=Harry James and his Orchestra - Motem Swing
TTITLE19=Woody Herman and his Orchestra - Summer Sequence pts 1, 2, 3, 4
TTITLE20=George Handy and his Orchestra - The Bloos
EXTD=
EXTT0=
EXTT1=
EXTT2=
EXTT3=
EXTT4=
EXTT5=
EXTT6=
EXTT7=
EXTT8=
EXTT9=
EXTT10=
EXTT11=
EXTT12=
EXTT13=
EXTT14=
EXTT15=
EXTT16=
EXTT17=
EXTT18=
EXTT19=
EXTT20=
PLAYORDER=
